<svg width="40" height="73" version="1.1" xmlns="http://www.w3.org/2000/svg"><path fill="rgb(0,0,0)" stroke="rgb(0,0,0)" stroke-width="1" opacity="0" d="M 3.5 0 L 40 0 L 40 34.5 L 30.5 26 L 4.5 2 L 3.5 0 Z "></path><path fill="rgb(0,0,0)" stroke="rgb(0,0,0)" stroke-width="1" opacity="0" d="M 0.5 3 L 35 36.5 L 0.5 70 L 0.5 3 Z "></path><path fill="rgb(0,0,0)" stroke="rgb(0,0,0)" stroke-width="1" opacity="0" d="M 39.5 38 L 40 73 L 3 72.5 L 39.5 38 Z "></path><path fill="rgb(211,193,173)" stroke="rgb(211,193,173)" stroke-width="1" opacity="0.9450980392156862" d="M 1 1 L 3.5 1 L 40 36.5 L 3.5 72 L 1 72 L 1 70.5 L 23.5 48 L 36 36.5 L 1 2.5 L 1 1 Z "></path><path fill="rgb(213,197,175)" stroke="rgb(213,197,175)" stroke-width="1" opacity="0.23921568627450981" d="M 1.5 0 L 3 0.5 L 1 1 L 1 2.5 L 22 23.5 L 0 2.5 L 1.5 0 Z "></path><path fill="rgb(213,197,175)" stroke="rgb(213,197,175)" stroke-width="1" opacity="0.23921568627450981" d="M 5.5 2 L 28.5 26 L 5.5 2 Z "></path><path fill="rgb(213,197,175)" stroke="rgb(213,197,175)" stroke-width="1" opacity="0.23921568627450981" d="M 24.5 25 L 36 36.5 L 24.5 48 L 35 36.5 L 24.5 25 Z "></path><path fill="rgb(213,197,175)" stroke="rgb(213,197,175)" stroke-width="1" opacity="0.23921568627450981" d="M 30.5 26 L 39.5 36 L 30.5 26 Z "></path><path fill="rgb(213,197,175)" stroke="rgb(213,197,175)" stroke-width="1" opacity="0.23921568627450981" d="M 39.5 37 L 30.5 47 L 39.5 37 Z "></path><path fill="rgb(213,197,175)" stroke="rgb(213,197,175)" stroke-width="1" opacity="0.23921568627450981" d="M 28.5 47 L 5.5 71 L 28.5 47 Z "></path><path fill="rgb(213,197,175)" stroke="rgb(213,197,175)" stroke-width="1" opacity="0.23921568627450981" d="M 21.5 49 L 1 70.5 Q 0.3 72.8 2.5 72 L 2.5 73 L 0 71.5 L 21.5 49 Z "></path></svg>